<svg width="211" height="77" viewBox="0 0 211 77" fill="none" xmlns="http://www.w3.org/2000/svg">
<rect width="204" height="69" rx="10" fill="black"/>
<rect x="7" y="8" width="204" height="69" rx="10" fill="black" fill-opacity="0.5"/>
<path d="M64.3761 41.2241V23.0422H68.7706V37.6552H76.3345V41.2241H64.3761ZM84.9749 41.4815C83.5426 41.4815 82.3115 41.1885 81.2817 40.6026C80.2578 40.0108 79.4677 39.1881 78.9113 38.1346C78.3609 37.0751 78.0857 35.847 78.0857 34.4503C78.0857 33.0476 78.3609 31.8195 78.9113 30.766C79.4677 29.7065 80.2578 28.8839 81.2817 28.2979C82.3115 27.7061 83.5426 27.4101 84.9749 27.4101C86.4072 27.4101 87.6353 27.7061 88.6592 28.2979C89.689 28.8839 90.4791 29.7065 91.0296 30.766C91.5859 31.8195 91.8641 33.0476 91.8641 34.4503C91.8641 35.847 91.5859 37.0751 91.0296 38.1346C90.4791 39.1881 89.689 40.0108 88.6592 40.6026C87.6353 41.1885 86.4072 41.4815 84.9749 41.4815ZM85.0015 38.2056C85.5223 38.2056 85.9633 38.0458 86.3243 37.7262C86.6853 37.4066 86.9606 36.9627 87.1499 36.3945C87.3453 35.8263 87.4429 35.1694 87.4429 34.4236C87.4429 33.6661 87.3453 33.0032 87.1499 32.435C86.9606 31.8668 86.6853 31.4229 86.3243 31.1033C85.9633 30.7837 85.5223 30.6239 85.0015 30.6239C84.4629 30.6239 84.0072 30.7837 83.6343 31.1033C83.2674 31.4229 82.9862 31.8668 82.7909 32.435C82.6015 33.0032 82.5068 33.6661 82.5068 34.4236C82.5068 35.1694 82.6015 35.8263 82.7909 36.3945C82.9862 36.9627 83.2674 37.4066 83.6343 37.7262C84.0072 38.0458 84.4629 38.2056 85.0015 38.2056ZM100.445 46.6218C99.1483 46.6218 98.0386 46.4413 97.1153 46.0802C96.192 45.7192 95.467 45.225 94.9403 44.5976C94.4135 43.9703 94.0969 43.26 93.9903 42.467L98.1008 42.2361C98.1777 42.5143 98.3198 42.757 98.5269 42.9641C98.74 43.1713 99.0152 43.3311 99.3525 43.4435C99.6958 43.556 100.098 43.6122 100.56 43.6122C101.288 43.6122 101.889 43.4346 102.362 43.0795C102.842 42.7303 103.081 42.1178 103.081 41.2418V38.8448H102.93C102.759 39.265 102.498 39.6408 102.149 39.9723C101.8 40.3037 101.365 40.5641 100.844 40.7535C100.329 40.9429 99.7372 41.0376 99.0684 41.0376C98.0741 41.0376 97.1627 40.8068 96.3341 40.3452C95.5114 39.8776 94.8515 39.1555 94.3543 38.179C93.8631 37.1965 93.6175 35.9329 93.6175 34.3881C93.6175 32.796 93.872 31.4851 94.3809 30.4552C94.8899 29.4195 95.5558 28.653 96.3785 28.1559C97.2071 27.6587 98.0978 27.4101 99.0507 27.4101C99.7668 27.4101 100.379 27.5344 100.888 27.783C101.403 28.0257 101.826 28.3394 102.158 28.7241C102.489 29.1088 102.741 29.5083 102.913 29.9226H103.037V27.5877H107.36V41.2773C107.36 42.4314 107.07 43.405 106.49 44.1981C105.91 44.9912 105.099 45.592 104.058 46.0003C103.016 46.4146 101.812 46.6218 100.445 46.6218ZM100.578 37.8771C101.104 37.8771 101.554 37.738 101.927 37.4599C102.3 37.1817 102.587 36.7822 102.788 36.2613C102.989 35.7405 103.09 35.1161 103.09 34.3881C103.09 33.6483 102.989 33.0121 102.788 32.4794C102.593 31.9408 102.306 31.5265 101.927 31.2365C101.554 30.9465 101.104 30.8015 100.578 30.8015C100.039 30.8015 99.5834 30.9494 99.2105 31.2454C98.8376 31.5413 98.5535 31.9586 98.3582 32.4971C98.1688 33.0298 98.0741 33.6601 98.0741 34.3881C98.0741 35.1161 98.1718 35.7405 98.3671 36.2613C98.5624 36.7822 98.8435 37.1817 99.2105 37.4599C99.5834 37.738 100.039 37.8771 100.578 37.8771ZM110.128 41.2241V27.5877H114.469V41.2241H110.128ZM112.303 25.9986C111.693 25.9986 111.17 25.7973 110.732 25.3949C110.294 24.9865 110.075 24.4952 110.075 23.9211C110.075 23.353 110.294 22.8676 110.732 22.4652C111.17 22.0568 111.693 21.8526 112.303 21.8526C112.919 21.8526 113.442 22.0568 113.874 22.4652C114.312 22.8676 114.531 23.353 114.531 23.9211C114.531 24.4952 114.312 24.9865 113.874 25.3949C113.442 25.7973 112.919 25.9986 112.303 25.9986ZM121.574 33.4471V41.2241H117.233V27.5877H121.361V30.0912H121.512C121.813 29.2567 122.328 28.6027 123.056 28.1292C123.784 27.6498 124.651 27.4101 125.658 27.4101C126.616 27.4101 127.448 27.6262 128.152 28.0582C128.862 28.4844 129.413 29.0821 129.804 29.8515C130.2 30.615 130.395 31.5087 130.389 32.5327V41.2241H126.048V33.3849C126.054 32.6274 125.862 32.0355 125.471 31.6094C125.086 31.1832 124.551 30.9702 123.864 30.9702C123.409 30.9702 123.006 31.0708 122.657 31.272C122.314 31.4673 122.047 31.7484 121.858 32.1154C121.674 32.4823 121.58 32.9262 121.574 33.4471Z" fill="white"/>
</svg>
