<svg width="214" height="77" viewBox="0 0 214 77" fill="none" xmlns="http://www.w3.org/2000/svg">
<rect width="204" height="69" rx="10" fill="black"/>
<rect x="10" y="8" width="204" height="69" rx="10" fill="black" fill-opacity="0.5"/>
<path d="M65.2038 28.4932C65.1446 27.8422 64.8813 27.3362 64.4137 26.9751C63.9521 26.6082 63.2921 26.4247 62.4339 26.4247C61.8658 26.4247 61.3923 26.4987 61.0135 26.6466C60.6347 26.7946 60.3506 26.9988 60.1612 27.2592C59.9718 27.5137 59.8742 27.8067 59.8683 28.1381C59.8564 28.4104 59.9097 28.6501 60.0281 28.8572C60.1523 29.0644 60.3299 29.2479 60.5607 29.4077C60.7975 29.5615 61.0816 29.6977 61.413 29.816C61.7444 29.9344 62.1173 30.038 62.5316 30.1268L64.0941 30.4819C64.9937 30.6772 65.7868 30.9376 66.4734 31.2631C67.1658 31.5886 67.7459 31.9763 68.2134 32.4261C68.6869 32.8759 69.045 33.3938 69.2876 33.9797C69.5303 34.5657 69.6546 35.2226 69.6605 35.9506C69.6546 37.0988 69.3646 38.0843 68.7905 38.9069C68.2164 39.7296 67.3907 40.36 66.3136 40.7979C65.2423 41.2359 63.9491 41.4549 62.4339 41.4549C60.9129 41.4549 59.5871 41.227 58.4567 40.7713C57.3262 40.3156 56.4473 39.6231 55.82 38.6939C55.1926 37.7647 54.87 36.5898 54.8523 35.1694H59.0604C59.0959 35.7553 59.2527 36.2436 59.5309 36.6342C59.8091 37.0248 60.1908 37.3208 60.6761 37.522C61.1674 37.7232 61.7356 37.8238 62.3807 37.8238C62.9725 37.8238 63.4756 37.7439 63.8899 37.5841C64.3101 37.4243 64.6327 37.2024 64.8576 36.9183C65.0825 36.6342 65.1979 36.3087 65.2038 35.9417C65.1979 35.5985 65.0914 35.3055 64.8842 35.0628C64.6771 34.8143 64.3575 34.6012 63.9254 34.4236C63.4993 34.2402 62.9548 34.0715 62.2919 33.9176L60.392 33.4737C58.8177 33.1127 57.5778 32.5297 56.6722 31.7248C55.7667 30.9139 55.3169 29.819 55.3228 28.44C55.3169 27.3154 55.6187 26.33 56.2283 25.4836C56.8379 24.6373 57.6813 23.9774 58.7585 23.5039C59.8357 23.0304 61.0638 22.7937 62.4428 22.7937C63.8514 22.7937 65.0736 23.0334 66.1094 23.5128C67.151 23.9863 67.9589 24.6521 68.533 25.5103C69.1071 26.3685 69.4001 27.3628 69.4119 28.4932H65.2038ZM71.88 41.2241V27.5877H76.2212V41.2241H71.88ZM74.055 25.9986C73.4454 25.9986 72.9216 25.7973 72.4837 25.3949C72.0457 24.9865 71.8267 24.4952 71.8267 23.9211C71.8267 23.353 72.0457 22.8676 72.4837 22.4652C72.9216 22.0568 73.4454 21.8526 74.055 21.8526C74.6706 21.8526 75.1944 22.0568 75.6264 22.4652C76.0644 22.8676 76.2834 23.353 76.2834 23.9211C76.2834 24.4952 76.0644 24.9865 75.6264 25.3949C75.1944 25.7973 74.6706 25.9986 74.055 25.9986ZM85.341 46.6218C84.0448 46.6218 82.9351 46.4413 82.0118 46.0802C81.0885 45.7192 80.3635 45.225 79.8367 44.5976C79.31 43.9703 78.9933 43.26 78.8868 42.467L82.9972 42.2361C83.0742 42.5143 83.2162 42.757 83.4234 42.9641C83.6365 43.1713 83.9117 43.3311 84.249 43.4435C84.5923 43.556 84.9948 43.6122 85.4564 43.6122C86.1844 43.6122 86.7851 43.4346 87.2586 43.0795C87.738 42.7303 87.9777 42.1178 87.9777 41.2418V38.8448H87.8268C87.6552 39.265 87.3947 39.6408 87.0455 39.9723C86.6963 40.3037 86.2613 40.5641 85.7405 40.7535C85.2256 40.9429 84.6337 41.0376 83.9649 41.0376C82.9706 41.0376 82.0592 40.8068 81.2306 40.3452C80.4079 39.8776 79.748 39.1555 79.2508 38.179C78.7596 37.1965 78.5139 35.9329 78.5139 34.3881C78.5139 32.796 78.7684 31.4851 79.2774 30.4552C79.7864 29.4195 80.4523 28.653 81.2749 28.1559C82.1035 27.6587 82.9943 27.4101 83.9472 27.4101C84.6633 27.4101 85.2759 27.5344 85.7849 27.783C86.2998 28.0257 86.723 28.3394 87.0544 28.7241C87.3859 29.1088 87.6374 29.5083 87.809 29.9226H87.9333V27.5877H92.2568V41.2773C92.2568 42.4314 91.9668 43.405 91.3868 44.1981C90.8068 44.9912 89.9959 45.592 88.9543 46.0003C87.9126 46.4146 86.7082 46.6218 85.341 46.6218ZM85.4742 37.8771C86.0009 37.8771 86.4507 37.738 86.8236 37.4599C87.1965 37.1817 87.4835 36.7822 87.6847 36.2613C87.886 35.7405 87.9866 35.1161 87.9866 34.3881C87.9866 33.6483 87.886 33.0121 87.6847 32.4794C87.4894 31.9408 87.2024 31.5265 86.8236 31.2365C86.4507 30.9465 86.0009 30.8015 85.4742 30.8015C84.9356 30.8015 84.4798 30.9494 84.107 31.2454C83.7341 31.5413 83.45 31.9586 83.2547 32.4971C83.0653 33.0298 82.9706 33.6601 82.9706 34.3881C82.9706 35.1161 83.0683 35.7405 83.2636 36.2613C83.4589 36.7822 83.74 37.1817 84.107 37.4599C84.4798 37.738 84.9356 37.8771 85.4742 37.8771ZM99.3658 33.4471V41.2241H95.0245V27.5877H99.1527V30.0912H99.3036C99.6055 29.2567 100.12 28.6027 100.848 28.1292C101.576 27.6498 102.443 27.4101 103.45 27.4101C104.408 27.4101 105.24 27.6262 105.944 28.0582C106.654 28.4844 107.205 29.0821 107.596 29.8515C107.992 30.615 108.187 31.5087 108.181 32.5327V41.2241H103.84V33.3849C103.846 32.6274 103.654 32.0355 103.263 31.6094C102.878 31.1832 102.343 30.9702 101.656 30.9702C101.201 30.9702 100.798 31.0708 100.449 31.272C100.106 31.4673 99.8393 31.7484 99.6499 32.1154C99.4664 32.4823 99.3717 32.9262 99.3658 33.4471ZM119.667 35.3381V27.5877H124V41.2241H119.862V38.685H119.72C119.419 39.5195 118.904 40.1824 118.176 40.6736C117.454 41.159 116.581 41.4016 115.557 41.4016C114.628 41.4016 113.811 41.1885 113.106 40.7624C112.402 40.3363 111.855 39.7415 111.464 38.978C111.073 38.2086 110.875 37.3089 110.869 36.2791V27.5877H115.21V35.4268C115.216 36.1666 115.412 36.7496 115.796 37.1758C116.181 37.6019 116.705 37.815 117.368 37.815C117.8 37.815 118.188 37.7203 118.531 37.5309C118.88 37.3356 119.155 37.0544 119.356 36.6875C119.564 36.3146 119.667 35.8648 119.667 35.3381ZM126.763 46.3377V27.5877H131.06V29.9226H131.193C131.37 29.5083 131.622 29.1088 131.947 28.7241C132.279 28.3394 132.699 28.0257 133.208 27.783C133.723 27.5344 134.339 27.4101 135.055 27.4101C136.002 27.4101 136.886 27.6587 137.709 28.1559C138.538 28.653 139.207 29.4195 139.716 30.4552C140.225 31.491 140.479 32.8108 140.479 34.4148C140.479 35.9595 140.233 37.2527 139.742 38.2944C139.257 39.336 138.6 40.1173 137.771 40.6381C136.949 41.159 136.034 41.4194 135.028 41.4194C134.342 41.4194 133.747 41.3069 133.244 41.082C132.741 40.8571 132.317 40.5612 131.974 40.1942C131.637 39.8273 131.376 39.4337 131.193 39.0135H131.104V46.3377H126.763ZM131.015 34.4059C131.015 35.1398 131.113 35.779 131.308 36.3235C131.509 36.868 131.797 37.2912 132.169 37.593C132.548 37.889 133.001 38.0369 133.528 38.0369C134.06 38.0369 134.513 37.889 134.886 37.593C135.259 37.2912 135.54 36.868 135.729 36.3235C135.925 35.779 136.022 35.1398 136.022 34.4059C136.022 33.672 135.925 33.0357 135.729 32.4971C135.54 31.9586 135.259 31.5413 134.886 31.2454C134.519 30.9494 134.066 30.8015 133.528 30.8015C132.995 30.8015 132.542 30.9465 132.169 31.2365C131.797 31.5265 131.509 31.9408 131.308 32.4794C131.113 33.018 131.015 33.6601 131.015 34.4059Z" fill="white"/>
</svg>
